<svg width="273" height="274" viewBox="0 0 273 274" fill="none" xmlns="http://www.w3.org/2000/svg">
<rect opacity="0.05" y="137" width="192.642" height="192.642" rx="16" transform="rotate(-45 0 137)" fill="#D6A266"/>
<rect opacity="0.05" x="29" y="138" width="152.602" height="152.602" rx="16" transform="rotate(-45 29 138)" fill="#D6A266"/>
<path d="M129.458 114.65C123.12 108.313 123.12 98.0616 129.458 91.7532C135.795 85.4156 146.047 85.4156 152.355 91.7532" fill="#F5EADD"/>
<path d="M95.5794 148.529C89.2418 142.191 89.2418 131.94 95.5794 125.632C101.917 119.294 112.168 119.294 118.476 125.632" fill="#F5EADD"/>
<path d="M175.194 114.183L159.861 98.8501L86 172.711L101.333 188.044L118.214 171.163C133.955 186.905 159.452 186.905 175.194 171.163C190.935 155.421 190.935 129.925 175.194 114.183ZM155.743 154.165C149.405 160.503 140.059 161.408 134.861 156.21L157.758 133.313C162.986 138.482 162.08 147.828 155.743 154.165Z" fill="#F5EADD"/>
</svg>
