<svg width="48" height="48" viewBox="0 0 48 48" fill="none" xmlns="http://www.w3.org/2000/svg">
<circle cx="24" cy="24" r="24" fill="#D6A266"/>
<mask id="mask0_214_3284" style="mask-type:alpha" maskUnits="userSpaceOnUse" x="0" y="0" width="48" height="48">
<circle cx="24" cy="24" r="24" fill="white"/>
</mask>
<g mask="url(#mask0_214_3284)">
<path d="M28 16H20C17.7909 16 16 17.7909 16 20V28C16 30.2091 17.7909 32 20 32H28C30.2091 32 32 30.2091 32 28V20C32 17.7909 30.2091 16 28 16Z" stroke="#1B3232" stroke-width="1.6" stroke-linecap="round" stroke-linejoin="round"/>
<path d="M27.1999 23.496C27.2986 24.1618 27.1849 24.8418 26.8749 25.4392C26.5649 26.0366 26.0744 26.5211 25.4732 26.8237C24.8719 27.1263 24.1906 27.2317 23.5261 27.1247C22.8616 27.0178 22.2477 26.7041 21.7717 26.2281C21.2958 25.7522 20.982 25.1383 20.8751 24.4738C20.7682 23.8092 20.8735 23.1279 21.1761 22.5267C21.4787 21.9255 21.9632 21.435 22.5607 21.125C23.1581 20.815 23.8381 20.7013 24.5039 20.8C25.183 20.9007 25.8117 21.2172 26.2972 21.7026C26.7827 22.1881 27.0992 22.8169 27.1999 23.496Z" stroke="#1B3232" stroke-width="1.6" stroke-linecap="round" stroke-linejoin="round"/>
<path d="M28.3999 19.6H28.4079" stroke="#1B3232" stroke-width="1.6" stroke-linecap="round" stroke-linejoin="round"/>
</g>
</svg>
