<svg width="48" height="48" viewBox="0 0 48 48" fill="none" xmlns="http://www.w3.org/2000/svg">
<circle cx="24" cy="24" r="24" fill="#D6A266"/>
<mask id="mask0_214_3291" style="mask-type:alpha" maskUnits="userSpaceOnUse" x="0" y="0" width="48" height="48">
<circle cx="24" cy="24" r="24" fill="white"/>
</mask>
<g mask="url(#mask0_214_3291)">
<path d="M33 17.0078C32.2165 17.5349 31.349 17.938 30.4309 18.2016C29.9382 17.6613 29.2833 17.2783 28.5548 17.1045C27.8264 16.9307 27.0596 16.9744 26.3581 17.2298C25.6565 17.4851 25.0542 17.9397 24.6324 18.5322C24.2107 19.1246 23.9899 19.8263 24 20.5422V21.3225C22.5622 21.358 21.1374 21.0539 19.8526 20.4373C18.5679 19.8206 17.463 18.9105 16.6364 17.7881C16.6364 17.7881 13.3636 24.81 20.7273 27.9309C19.0422 29.0216 17.0349 29.5685 15 29.4913C22.3636 33.3924 31.3636 29.4913 31.3636 20.5188C31.3629 20.3015 31.341 20.0847 31.2982 19.8712C32.1332 19.086 32.7225 18.0945 33 17.0078Z" stroke="#1B3232" stroke-width="1.6" stroke-linecap="round" stroke-linejoin="round"/>
</g>
</svg>
