<svg width="48" height="48" viewBox="0 0 48 48" fill="none" xmlns="http://www.w3.org/2000/svg">
<circle cx="24" cy="24" r="24" fill="#D6A266"/>
<mask id="mask0_214_3295" style="mask-type:alpha" maskUnits="userSpaceOnUse" x="0" y="0" width="48" height="48">
<circle cx="24" cy="24" r="24" fill="white"/>
</mask>
<g mask="url(#mask0_214_3295)">
<mask id="path-3-inside-1_214_3295" fill="white">
<path fill-rule="evenodd" clip-rule="evenodd" d="M20.4367 16.0082C20.375 15.9989 20.3122 15.9975 20.25 16.004C19.0135 16.1322 17.1315 16.7716 16.02 17.3491C15.9466 17.3874 15.8809 17.438 15.8259 17.4984C15.3643 18.004 14.9452 18.828 14.6174 19.6082C14.2792 20.4082 13.9998 21.2533 13.8425 21.8646C13.322 23.8505 13.0383 26.235 13 28.4969C12.9988 28.6098 13.0271 28.7212 13.0824 28.8209C13.5235 29.6279 14.4747 30.3758 15.4275 30.9223C16.3905 31.4758 17.5153 31.9124 18.421 31.9969C18.5295 32.0069 18.6389 31.9926 18.7407 31.9552C18.8425 31.9178 18.9339 31.8583 19.0076 31.7814C19.2341 31.5462 19.6193 30.9969 19.9104 30.5702C20.0427 30.3758 20.1677 30.1899 20.2647 30.042C21.2381 30.211 22.4584 30.3096 24.0022 30.3096C25.543 30.3096 26.7634 30.211 27.7367 30.042C27.8338 30.1913 27.9573 30.3758 28.0896 30.5688C28.3807 30.9969 28.7659 31.5462 28.9938 31.7814C29.0676 31.8583 29.1589 31.9178 29.2607 31.9552C29.3625 31.9926 29.4719 32.0069 29.5805 31.9969C30.4862 31.9124 31.6095 31.4758 32.5725 30.9223C33.5252 30.3758 34.4765 29.6279 34.9191 28.8209C34.9738 28.7211 35.0016 28.6097 34.9999 28.4969C34.9632 26.235 34.6779 23.8491 34.1604 21.8632C33.9524 21.0962 33.6926 20.3429 33.3826 19.6082C33.0547 18.828 32.6357 18.0026 32.1755 17.4984C32.1201 17.4379 32.0539 17.3873 31.98 17.3491C30.8699 16.7716 28.9879 16.1322 27.7499 16.004C27.6883 15.9976 27.626 15.999 27.5647 16.0082C27.2876 16.0593 27.0277 16.1744 26.8075 16.3435C26.3143 16.7238 25.9155 17.2044 25.6401 17.7505C25.0952 17.7096 24.5488 17.6893 24.0022 17.6899C23.4111 17.6899 22.8642 17.7111 22.3599 17.7491C22.0842 17.2035 21.6855 16.7234 21.1925 16.3435C20.9727 16.1746 20.7133 16.0595 20.4367 16.0082ZM29.1747 29.6871C29.3816 29.9923 29.5938 30.2943 29.8113 30.5927C30.3935 30.466 31.136 30.1702 31.8476 29.7617C32.646 29.304 33.2797 28.7758 33.5855 28.3293C33.537 26.2082 33.2635 24.0054 32.7916 22.1913C32.5993 21.4848 32.3596 20.7908 32.0741 20.1139C31.78 19.4125 31.4639 18.8181 31.1889 18.4773C30.2333 18.0026 28.7262 17.5012 27.7441 17.3646C27.7145 17.3818 27.686 17.4006 27.6588 17.4209C27.537 17.5127 27.4256 17.6166 27.3265 17.7308C27.2686 17.7969 27.2131 17.865 27.1604 17.935C27.6088 18.0139 28.0087 18.1082 28.3631 18.2125C29.3687 18.5082 30.0936 18.9167 30.4479 19.3688C30.5602 19.5122 30.6084 19.6925 30.582 19.87C30.5555 20.0475 30.4565 20.2077 30.3068 20.3153C30.2326 20.3685 30.1483 20.4073 30.0585 20.4293C29.9687 20.4514 29.8753 20.4562 29.7835 20.4437C29.5982 20.4183 29.431 20.3235 29.3187 20.1801C29.232 20.0702 28.8541 19.7716 27.9484 19.504C27.0736 19.2477 25.7871 19.042 24.0022 19.042C22.2173 19.042 20.9293 19.2477 20.0559 19.5054C19.1502 19.773 18.7724 20.0688 18.6856 20.1801C18.63 20.2511 18.5604 20.3109 18.4806 20.3562C18.4009 20.4014 18.3126 20.4311 18.2209 20.4437C18.0356 20.4691 17.8473 20.4229 17.6976 20.3153C17.6235 20.262 17.561 20.1953 17.5138 20.1189C17.4666 20.0425 17.4355 19.9579 17.4224 19.87C17.3959 19.6925 17.4442 19.5122 17.5565 19.3688C17.9108 18.9153 18.6356 18.5096 19.6413 18.2139C19.9942 18.1082 20.3941 18.0153 20.8411 17.9364C20.7882 17.8657 20.7323 17.797 20.6735 17.7308C20.5748 17.6167 20.464 17.5128 20.3426 17.4209C20.3149 17.4005 20.2859 17.3817 20.2559 17.3646C19.2752 17.5012 17.7682 18.0026 16.8125 18.4773C16.5361 18.8195 16.2214 19.4125 15.9259 20.1139C15.6127 20.8603 15.3525 21.6449 15.2099 22.1913C14.7364 24.0054 14.463 26.2082 14.4159 28.3293C14.7217 28.7772 15.354 29.304 16.1523 29.7631C16.8654 30.1716 17.6064 30.4674 18.1901 30.5927C18.4098 30.2957 18.6221 29.9938 18.8268 29.6871C17.6726 29.2941 17.0536 28.7547 16.6508 28.1772C16.5994 28.1032 16.5638 28.0203 16.5459 27.9331C16.528 27.8459 16.5282 27.7562 16.5465 27.6691C16.5648 27.582 16.6008 27.4992 16.6525 27.4255C16.7042 27.3517 16.7705 27.2884 16.8478 27.2392C16.925 27.19 17.0116 27.1559 17.1026 27.1387C17.1936 27.1216 17.2873 27.1218 17.3782 27.1393C17.4691 27.1568 17.5555 27.1913 17.6326 27.2409C17.7096 27.2904 17.7756 27.354 17.827 27.4279C18.2093 27.98 19.2149 28.9575 24.0022 28.9575C28.7909 28.9575 29.7951 27.98 30.1774 27.4279C30.2811 27.2785 30.4426 27.1747 30.6262 27.1393C30.8098 27.1039 31.0006 27.1398 31.1566 27.2392C31.3126 27.3386 31.421 27.4932 31.4579 27.6691C31.4949 27.845 31.4573 28.0278 31.3536 28.1772C30.9508 28.7547 30.3303 29.2955 29.1747 29.6871ZM18.9738 23.3125C19.3326 22.9434 19.8192 22.735 20.3265 22.7322C20.8337 22.735 21.3204 22.9434 21.6791 23.3125C22.0364 23.6829 22.2378 24.1829 22.2378 24.704C22.2378 25.2251 22.0364 25.7251 21.6791 26.0955C21.3204 26.4646 20.8337 26.673 20.3265 26.6758C20.0715 26.6733 19.8198 26.6204 19.5871 26.5206C19.3544 26.4207 19.1456 26.2761 18.9738 26.0955C18.6115 25.7155 18.4121 25.2186 18.4151 24.704C18.4151 24.1829 18.6165 23.6829 18.9738 23.3125ZM27.6779 22.7322C27.1707 22.735 26.684 22.9434 26.3252 23.3125C25.968 23.6829 25.7665 24.1829 25.7665 24.704C25.7665 25.2251 25.968 25.7251 26.3252 26.0955C26.684 26.4646 27.1707 26.673 27.6779 26.6758C28.1852 26.673 28.6718 26.4646 29.0306 26.0955C29.3878 25.7251 29.5893 25.2251 29.5893 24.704C29.5893 24.1829 29.3878 23.6829 29.0306 23.3125C28.8588 23.1319 28.65 22.9873 28.4173 22.8874C28.1846 22.7876 27.9329 22.7347 27.6779 22.7322Z"/>
</mask>
<path fill-rule="evenodd" clip-rule="evenodd" d="M20.4367 16.0082C20.375 15.9989 20.3122 15.9975 20.25 16.004C19.0135 16.1322 17.1315 16.7716 16.02 17.3491C15.9466 17.3874 15.8809 17.438 15.8259 17.4984C15.3643 18.004 14.9452 18.828 14.6174 19.6082C14.2792 20.4082 13.9998 21.2533 13.8425 21.8646C13.322 23.8505 13.0383 26.235 13 28.4969C12.9988 28.6098 13.0271 28.7212 13.0824 28.8209C13.5235 29.6279 14.4747 30.3758 15.4275 30.9223C16.3905 31.4758 17.5153 31.9124 18.421 31.9969C18.5295 32.0069 18.6389 31.9926 18.7407 31.9552C18.8425 31.9178 18.9339 31.8583 19.0076 31.7814C19.2341 31.5462 19.6193 30.9969 19.9104 30.5702C20.0427 30.3758 20.1677 30.1899 20.2647 30.042C21.2381 30.211 22.4584 30.3096 24.0022 30.3096C25.543 30.3096 26.7634 30.211 27.7367 30.042C27.8338 30.1913 27.9573 30.3758 28.0896 30.5688C28.3807 30.9969 28.7659 31.5462 28.9938 31.7814C29.0676 31.8583 29.1589 31.9178 29.2607 31.9552C29.3625 31.9926 29.4719 32.0069 29.5805 31.9969C30.4862 31.9124 31.6095 31.4758 32.5725 30.9223C33.5252 30.3758 34.4765 29.6279 34.9191 28.8209C34.9738 28.7211 35.0016 28.6097 34.9999 28.4969C34.9632 26.235 34.6779 23.8491 34.1604 21.8632C33.9524 21.0962 33.6926 20.3429 33.3826 19.6082C33.0547 18.828 32.6357 18.0026 32.1755 17.4984C32.1201 17.4379 32.0539 17.3873 31.98 17.3491C30.8699 16.7716 28.9879 16.1322 27.7499 16.004C27.6883 15.9976 27.626 15.999 27.5647 16.0082C27.2876 16.0593 27.0277 16.1744 26.8075 16.3435C26.3143 16.7238 25.9155 17.2044 25.6401 17.7505C25.0952 17.7096 24.5488 17.6893 24.0022 17.6899C23.4111 17.6899 22.8642 17.7111 22.3599 17.7491C22.0842 17.2035 21.6855 16.7234 21.1925 16.3435C20.9727 16.1746 20.7133 16.0595 20.4367 16.0082ZM29.1747 29.6871C29.3816 29.9923 29.5938 30.2943 29.8113 30.5927C30.3935 30.466 31.136 30.1702 31.8476 29.7617C32.646 29.304 33.2797 28.7758 33.5855 28.3293C33.537 26.2082 33.2635 24.0054 32.7916 22.1913C32.5993 21.4848 32.3596 20.7908 32.0741 20.1139C31.78 19.4125 31.4639 18.8181 31.1889 18.4773C30.2333 18.0026 28.7262 17.5012 27.7441 17.3646C27.7145 17.3818 27.686 17.4006 27.6588 17.4209C27.537 17.5127 27.4256 17.6166 27.3265 17.7308C27.2686 17.7969 27.2131 17.865 27.1604 17.935C27.6088 18.0139 28.0087 18.1082 28.3631 18.2125C29.3687 18.5082 30.0936 18.9167 30.4479 19.3688C30.5602 19.5122 30.6084 19.6925 30.582 19.87C30.5555 20.0475 30.4565 20.2077 30.3068 20.3153C30.2326 20.3685 30.1483 20.4073 30.0585 20.4293C29.9687 20.4514 29.8753 20.4562 29.7835 20.4437C29.5982 20.4183 29.431 20.3235 29.3187 20.1801C29.232 20.0702 28.8541 19.7716 27.9484 19.504C27.0736 19.2477 25.7871 19.042 24.0022 19.042C22.2173 19.042 20.9293 19.2477 20.0559 19.5054C19.1502 19.773 18.7724 20.0688 18.6856 20.1801C18.63 20.2511 18.5604 20.3109 18.4806 20.3562C18.4009 20.4014 18.3126 20.4311 18.2209 20.4437C18.0356 20.4691 17.8473 20.4229 17.6976 20.3153C17.6235 20.262 17.561 20.1953 17.5138 20.1189C17.4666 20.0425 17.4355 19.9579 17.4224 19.87C17.3959 19.6925 17.4442 19.5122 17.5565 19.3688C17.9108 18.9153 18.6356 18.5096 19.6413 18.2139C19.9942 18.1082 20.3941 18.0153 20.8411 17.9364C20.7882 17.8657 20.7323 17.797 20.6735 17.7308C20.5748 17.6167 20.464 17.5128 20.3426 17.4209C20.3149 17.4005 20.2859 17.3817 20.2559 17.3646C19.2752 17.5012 17.7682 18.0026 16.8125 18.4773C16.5361 18.8195 16.2214 19.4125 15.9259 20.1139C15.6127 20.8603 15.3525 21.6449 15.2099 22.1913C14.7364 24.0054 14.463 26.2082 14.4159 28.3293C14.7217 28.7772 15.354 29.304 16.1523 29.7631C16.8654 30.1716 17.6064 30.4674 18.1901 30.5927C18.4098 30.2957 18.6221 29.9938 18.8268 29.6871C17.6726 29.2941 17.0536 28.7547 16.6508 28.1772C16.5994 28.1032 16.5638 28.0203 16.5459 27.9331C16.528 27.8459 16.5282 27.7562 16.5465 27.6691C16.5648 27.582 16.6008 27.4992 16.6525 27.4255C16.7042 27.3517 16.7705 27.2884 16.8478 27.2392C16.925 27.19 17.0116 27.1559 17.1026 27.1387C17.1936 27.1216 17.2873 27.1218 17.3782 27.1393C17.4691 27.1568 17.5555 27.1913 17.6326 27.2409C17.7096 27.2904 17.7756 27.354 17.827 27.4279C18.2093 27.98 19.2149 28.9575 24.0022 28.9575C28.7909 28.9575 29.7951 27.98 30.1774 27.4279C30.2811 27.2785 30.4426 27.1747 30.6262 27.1393C30.8098 27.1039 31.0006 27.1398 31.1566 27.2392C31.3126 27.3386 31.421 27.4932 31.4579 27.6691C31.4949 27.845 31.4573 28.0278 31.3536 28.1772C30.9508 28.7547 30.3303 29.2955 29.1747 29.6871ZM18.9738 23.3125C19.3326 22.9434 19.8192 22.735 20.3265 22.7322C20.8337 22.735 21.3204 22.9434 21.6791 23.3125C22.0364 23.6829 22.2378 24.1829 22.2378 24.704C22.2378 25.2251 22.0364 25.7251 21.6791 26.0955C21.3204 26.4646 20.8337 26.673 20.3265 26.6758C20.0715 26.6733 19.8198 26.6204 19.5871 26.5206C19.3544 26.4207 19.1456 26.2761 18.9738 26.0955C18.6115 25.7155 18.4121 25.2186 18.4151 24.704C18.4151 24.1829 18.6165 23.6829 18.9738 23.3125ZM27.6779 22.7322C27.1707 22.735 26.684 22.9434 26.3252 23.3125C25.968 23.6829 25.7665 24.1829 25.7665 24.704C25.7665 25.2251 25.968 25.7251 26.3252 26.0955C26.684 26.4646 27.1707 26.673 27.6779 26.6758C28.1852 26.673 28.6718 26.4646 29.0306 26.0955C29.3878 25.7251 29.5893 25.2251 29.5893 24.704C29.5893 24.1829 29.3878 23.6829 29.0306 23.3125C28.8588 23.1319 28.65 22.9873 28.4173 22.8874C28.1846 22.7876 27.9329 22.7347 27.6779 22.7322Z" stroke="#1B3232" stroke-width="3.2" mask="url(#path-3-inside-1_214_3295)"/>
</g>
</svg>
