<svg width="28" height="31" viewBox="0 0 28 31" fill="none" xmlns="http://www.w3.org/2000/svg">
<path d="M17.6023 19.7725C17.9751 20.1898 18.4734 20.4745 19.0221 20.5838C19.5708 20.693 20.1401 20.6209 20.6443 20.3783C20.1537 21.1069 19.8925 21.9656 19.8941 22.8439C19.8941 23.7577 20.1712 24.6051 20.6457 25.3096C20.2298 25.1092 19.7678 25.0241 19.3078 25.0632C18.8478 25.1023 18.4067 25.2642 18.0306 25.5319C17.6545 25.7996 17.3571 26.1633 17.1695 26.5852C16.9819 27.007 16.911 27.4714 16.9642 27.93C14.5462 28.8458 11.9041 28.9909 9.4004 28.3455C6.89668 27.7001 4.65399 26.2959 2.98 24.3254C1.30602 22.3548 0.282759 19.9146 0.0506086 17.3395C-0.181542 14.7644 0.38879 12.1805 1.68336 9.94241C2.97793 7.70428 4.93331 5.92154 7.28123 4.83878C9.62916 3.75602 12.2546 3.42628 14.7974 3.8948C17.3401 4.36332 19.6756 5.60714 21.4834 7.45563C23.2913 9.30411 24.4828 11.6667 24.8947 14.2192C24.3446 14.0757 23.7786 14.0024 23.2101 14.0011C21.5919 14.0011 20.2301 14.5759 19.3576 15.0593C18.8294 15.3527 18.3296 15.6946 17.8647 16.0807L17.8308 16.1101L17.8175 16.1219L17.8116 16.1263L17.8072 16.1308C17.2975 16.5865 16.9897 17.2259 16.9512 17.9085C16.9128 18.5911 17.147 19.261 17.6023 19.7711V19.7725ZM11.43 9.06094L11.4197 9.21127V15.8434L11.43 15.9937C11.4664 16.2583 11.5974 16.5007 11.7987 16.6762C12 16.8517 12.258 16.9484 12.5251 16.9484C12.7921 16.9484 13.0502 16.8517 13.2515 16.6762C13.4528 16.5007 13.5837 16.2583 13.6201 15.9937L13.6304 15.8434V9.21127L13.6201 9.06094C13.5837 8.79637 13.4528 8.55393 13.2515 8.37844C13.0502 8.20294 12.7921 8.10625 12.5251 8.10625C12.258 8.10625 12 8.20294 11.7987 8.37844C11.5974 8.55393 11.4664 8.79637 11.43 9.06094V9.06094ZM23.2131 3.95569L23.0922 3.86578C22.8579 3.71331 22.5745 3.65529 22.2991 3.70342C22.0237 3.75155 21.7768 3.90225 21.608 4.12517C21.4393 4.34808 21.3613 4.62665 21.3898 4.90477C21.4182 5.18289 21.551 5.4399 21.7614 5.62403L23.4548 7.09783L23.5742 7.18773C23.8085 7.34234 24.0928 7.40202 24.3695 7.35466C24.6461 7.3073 24.8944 7.15645 25.064 6.93273C25.2335 6.709 25.3116 6.42916 25.2823 6.14998C25.2531 5.87081 25.1187 5.61322 24.9065 5.42949L23.2116 3.95569H23.2131ZM16.9465 1.10535C16.9465 0.812194 16.83 0.531044 16.6227 0.32375C16.4154 0.116456 16.1343 0 15.8411 0H9.20902L9.05869 0.0103166C8.78125 0.0484902 8.52864 0.190554 8.3519 0.407803C8.17517 0.625052 8.08749 0.901287 8.10658 1.18069C8.12567 1.4601 8.2501 1.72184 8.45474 1.91304C8.65938 2.10423 8.92896 2.21062 9.20902 2.2107H15.8411L15.9915 2.20039C16.2561 2.16406 16.4986 2.03314 16.6742 1.83183C16.8497 1.63053 16.9465 1.37246 16.9465 1.10535V1.10535ZM21.7363 22.8439C21.7363 22.5508 21.8528 22.2696 22.0601 22.0623C22.2674 21.855 22.5485 21.7386 22.8417 21.7386C23.6184 21.7386 24.401 21.4659 24.9699 21.0415C25.5446 20.6111 25.7893 20.1233 25.7893 19.7121C25.7893 18.7541 24.8092 17.6856 23.2101 17.6856C22.4497 17.6856 21.7172 17.9657 21.1395 18.284C20.8309 18.4555 20.538 18.6538 20.264 18.8765L20.2596 18.8809C20.0394 19.0666 19.7554 19.1591 19.4681 19.1386C19.1807 19.118 18.9128 18.9861 18.7212 18.771C18.5297 18.5558 18.4297 18.2744 18.4426 17.9866C18.4555 17.6988 18.5802 17.4274 18.7902 17.2302V17.2273L18.7946 17.2258L18.802 17.2184L18.8241 17.1993C18.931 17.1062 19.0421 17.0182 19.1572 16.9355C19.3753 16.7733 19.6863 16.5626 20.0709 16.3504C20.8255 15.9318 21.9353 15.4749 23.2101 15.4749C25.6802 15.4749 28 17.2111 28 19.7121C28 21.0312 27.2336 22.1085 26.2919 22.813L26.2491 22.8439L26.2933 22.8749C27.2351 23.5794 28 24.6582 28 25.9758C28 28.4783 25.6802 30.213 23.2101 30.213C21.9353 30.213 20.8255 29.7561 20.0709 29.3375C19.6302 29.0933 19.2129 28.8091 18.8241 28.4886L18.802 28.4694L18.7946 28.4621L18.7917 28.4606L18.7887 28.4577C18.5698 28.2626 18.4374 27.9886 18.4205 27.6959C18.4037 27.4032 18.5038 27.1158 18.6988 26.8969C18.8939 26.678 19.1679 26.5456 19.4606 26.5287C19.7533 26.5118 20.0407 26.6119 20.2596 26.807L20.264 26.8114L20.2935 26.835C20.3527 26.8832 20.4131 26.9299 20.4748 26.975C20.628 27.0914 20.858 27.2477 21.1395 27.4024C21.7172 27.7222 22.4511 28.0022 23.2101 28.0022C24.8092 28.0022 25.7893 26.9337 25.7893 25.9758C25.7893 25.5631 25.5461 25.0767 24.9699 24.6464C24.3509 24.197 23.6066 23.9532 22.8417 23.9493C22.5485 23.9493 22.2674 23.8328 22.0601 23.6255C21.8528 23.4182 21.7363 23.1371 21.7363 22.8439Z" fill="#D6A266"/>
</svg>
