<svg width="44" height="44" viewBox="0 0 44 44" fill="none" xmlns="http://www.w3.org/2000/svg">
<path d="M18.9287 12.0405C16.1683 9.28074 16.1683 4.81683 18.9287 2.0698C21.6892 -0.689935 26.1543 -0.689935 28.902 2.0698" fill="#F5EADD"/>
<path d="M4.17239 26.7932C1.41194 24.0334 1.41194 19.5695 4.17239 16.8225C6.93285 14.0628 11.3979 14.0628 14.1457 16.8225" fill="#F5EADD"/>
<path d="M38.8499 11.8369L32.1714 5.16016L0 37.3232L6.67852 44L14.0313 36.6492C20.8879 43.504 31.9933 43.504 38.8499 36.6492C45.7065 29.7943 45.7065 18.6918 38.8499 11.8369ZM30.3777 29.2475C27.6173 32.0072 23.5466 32.4015 21.2822 30.1377L31.2555 20.167C33.5325 22.4181 33.1382 26.4877 30.3777 29.2475Z" fill="#F5EADD"/>
</svg>
