<svg width="29" height="30" viewBox="0 0 29 30" fill="none" xmlns="http://www.w3.org/2000/svg">
<path d="M17.2007 2.08068L17.202 2.08273C17.3953 2.39807 17.4971 2.74476 17.4714 3.07163L17.4714 3.07163L17.4707 3.08203C17.4228 3.78405 17.6411 4.43271 17.9574 4.97428L17.9628 4.98357L17.9684 4.99273C19.0276 6.72004 21.3404 7.35563 23.1548 6.38721L23.1681 6.38008L23.1813 6.37255C24.2192 5.77753 25.5296 6.13522 26.1282 7.14981C26.1287 7.15058 26.1292 7.15135 26.1296 7.15213L27.1536 8.91689L27.1535 8.91694L27.1606 8.92869C27.7627 9.93439 27.4322 11.2093 26.3971 11.7867L26.3874 11.792L26.3779 11.7976C24.6123 12.8342 23.9661 15.1432 25.0479 16.9283C25.3284 17.3914 25.7233 17.9242 26.3958 18.2593C26.7317 18.441 27.0234 18.7428 27.2481 19.0866C27.5883 19.6538 27.5962 20.3956 27.1959 21.1343L26.1325 22.9179L26.1305 22.9213C25.742 23.5789 25.0104 23.99 24.2782 23.99C23.9131 23.99 23.5018 23.8847 23.1818 23.691C22.5731 23.3051 21.9093 23.195 21.3043 23.195C19.2483 23.195 17.5316 24.8672 17.4688 26.894L17.4684 26.9095V26.925C17.4684 28.0648 16.5392 29 15.2952 29H13.2104C11.9478 29 11.0219 28.0618 11.0219 26.925V26.9147L11.0217 26.9044C10.9796 24.8672 9.25509 23.195 7.20128 23.195C6.59265 23.195 5.92064 23.3008 5.31795 23.6945C5.0003 23.8848 4.57753 23.99 4.22738 23.99C3.47743 23.99 2.74749 23.577 2.36021 22.9222C2.36004 22.9219 2.35988 22.9216 2.35972 22.9213L1.30541 21.1272C1.3051 21.1266 1.30478 21.1261 1.30447 21.1255C0.903018 20.4342 0.907974 19.6596 1.26412 19.0757L1.27678 19.0549L1.28842 19.0336C1.42948 18.7748 1.73459 18.4604 2.10072 18.2561C2.76685 17.9221 3.15912 17.3929 3.44342 16.9511L3.45306 16.9361L3.46217 16.9208C4.52086 15.139 3.87792 12.8342 2.11236 11.7976L2.10467 11.7931L2.09691 11.7888C1.07455 11.2128 0.739109 9.93241 1.33356 8.92213L1.33662 8.91689L2.35994 7.15335C2.97502 6.13235 4.27561 5.7774 5.32805 6.3747L5.33726 6.37992L5.34657 6.38495C7.15106 7.35914 9.46465 6.71679 10.5218 4.99273L10.5274 4.98357L10.5328 4.97428C10.8477 4.43517 11.0654 3.78995 11.0202 3.0916C11.0028 2.73396 11.1065 2.3878 11.2906 2.10336L11.2979 2.09212L11.3049 2.08068C11.6924 1.44521 12.4018 1.02499 13.179 1H15.3258C16.0869 1 16.8019 1.42674 17.2007 2.08068ZM14.2681 9.77C11.3344 9.77 8.91457 12.0828 8.91457 15.015C8.91457 17.9517 11.339 20.245 14.2681 20.245C17.2112 20.245 19.5757 17.9381 19.5757 15.015C19.5757 12.0965 17.2159 9.77 14.2681 9.77Z" stroke="#F5EADD" stroke-width="2"/>
</svg>
