<svg width="29" height="22" viewBox="0 0 29 22" fill="none" xmlns="http://www.w3.org/2000/svg">
<path d="M22.3605 9.661C24.2271 9.39874 25.6642 7.79844 25.6682 5.85962C25.6682 3.9489 24.2753 2.36465 22.4488 2.06493" stroke="#D6A266" stroke-width="1.5" stroke-linecap="round" stroke-linejoin="round"/>
<path d="M24.8232 14.1483C26.6309 14.4186 27.8926 15.0514 27.8926 16.356C27.8926 17.2539 27.2985 17.8372 26.3378 18.2039" stroke="#D6A266" stroke-width="1.5" stroke-linecap="round" stroke-linejoin="round"/>
<path fill-rule="evenodd" clip-rule="evenodd" d="M14.3311 14.7013C10.0306 14.7013 6.35768 15.353 6.35768 17.9555C6.35768 20.5566 10.0079 21.227 14.3311 21.227C18.6315 21.227 22.3031 20.582 22.3031 17.9782C22.3031 15.3744 18.6543 14.7013 14.3311 14.7013Z" stroke="#D6A266" stroke-width="1.5" stroke-linecap="round" stroke-linejoin="round"/>
<path fill-rule="evenodd" clip-rule="evenodd" d="M14.3315 10.9874C17.1535 10.9874 19.4415 8.70067 19.4415 5.8774C19.4415 3.05547 17.1535 0.767418 14.3315 0.767418C11.5096 0.767418 9.22154 3.05547 9.22154 5.8774C9.21084 8.68996 11.4815 10.978 14.2941 10.9874H14.3315Z" stroke="#D6A266" stroke-width="1.5" stroke-linecap="round" stroke-linejoin="round"/>
<path d="M6.30037 9.661C4.43246 9.39874 2.99674 7.79844 2.99273 5.85962C2.99273 3.9489 4.38563 2.36465 6.21206 2.06493" stroke="#D6A266" stroke-width="1.5" stroke-linecap="round" stroke-linejoin="round"/>
<path d="M3.83689 14.1483C2.02919 14.4186 0.767418 15.0514 0.767418 16.356C0.767418 17.2539 1.36151 17.8372 2.32222 18.2039" stroke="#D6A266" stroke-width="1.5" stroke-linecap="round" stroke-linejoin="round"/>
<path d="M22.6998 9.661C24.5663 9.39874 26.0034 7.79844 26.0074 5.85962C26.0074 3.9489 24.6145 2.36465 22.7881 2.06493" stroke="#D6A266" stroke-width="1.5" stroke-linecap="round" stroke-linejoin="round"/>
<path d="M25.1629 14.1483C26.9706 14.4186 28.2324 15.0514 28.2324 16.356C28.2324 17.2539 27.6383 17.8372 26.6776 18.2039" stroke="#D6A266" stroke-width="1.5" stroke-linecap="round" stroke-linejoin="round"/>
<path fill-rule="evenodd" clip-rule="evenodd" d="M14.6708 14.7013C10.3703 14.7013 6.69742 15.353 6.69742 17.9555C6.69742 20.5566 10.3476 21.227 14.6708 21.227C18.9713 21.227 22.6429 20.582 22.6429 17.9782C22.6429 15.3744 18.994 14.7013 14.6708 14.7013Z" stroke="#D6A266" stroke-width="1.5" stroke-linecap="round" stroke-linejoin="round"/>
<path fill-rule="evenodd" clip-rule="evenodd" d="M14.6713 10.9874C17.4932 10.9874 19.7812 8.70067 19.7812 5.8774C19.7812 3.05547 17.4932 0.767418 14.6713 0.767418C11.8493 0.767418 9.56128 3.05547 9.56128 5.8774C9.55058 8.68996 11.8212 10.978 14.6338 10.9874H14.6713Z" stroke="#D6A266" stroke-width="1.5" stroke-linecap="round" stroke-linejoin="round"/>
<path d="M6.64011 9.661C4.7722 9.39874 3.33649 7.79844 3.33247 5.85962C3.33247 3.9489 4.72537 2.36465 6.5518 2.06493" stroke="#D6A266" stroke-width="1.5" stroke-linecap="round" stroke-linejoin="round"/>
<path d="M4.17663 14.1483C2.36893 14.4186 1.10716 15.0514 1.10716 16.356C1.10716 17.2539 1.70125 17.8372 2.66196 18.2039" stroke="#D6A266" stroke-width="1.5" stroke-linecap="round" stroke-linejoin="round"/>
</svg>
