<svg width="29" height="19" viewBox="0 0 29 19" fill="none" xmlns="http://www.w3.org/2000/svg">
<path fill-rule="evenodd" clip-rule="evenodd" d="M29 9.32206C29 9.59673 28.8909 9.86015 28.6967 10.0544C28.5024 10.2486 28.239 10.3577 27.9644 10.3577H3.5377L10.056 16.874C10.2505 17.0684 10.3597 17.3322 10.3597 17.6072C10.3597 17.8822 10.2505 18.146 10.056 18.3404C9.86157 18.5349 9.59782 18.6441 9.3228 18.6441C9.04778 18.6441 8.78403 18.5349 8.58956 18.3404L0.304427 10.0553C0.207981 9.95909 0.131462 9.84481 0.0792527 9.71899C0.027043 9.59317 0.000168397 9.45829 0.000168397 9.32206C0.000168397 9.18584 0.027043 9.05096 0.0792527 8.92514C0.131462 8.79932 0.207981 8.68503 0.304427 8.58883L8.58956 0.303691C8.78403 0.109225 9.04778 -2.37094e-05 9.3228 -2.3704e-05C9.59782 -2.36985e-05 9.86157 0.109225 10.056 0.303691C10.2505 0.498157 10.3597 0.76191 10.3597 1.03693C10.3597 1.31194 10.2505 1.57569 10.056 1.77016L3.5377 8.28642H27.9644C28.239 8.28642 28.5024 8.39553 28.6967 8.58975C28.8909 8.78397 29 9.04739 29 9.32206V9.32206Z" fill="#F5EADD"/>
</svg>
