<svg width="40" height="40" viewBox="0 0 40 40" fill="none" xmlns="http://www.w3.org/2000/svg">
<path fill-rule="evenodd" clip-rule="evenodd" d="M28.668 0C35.446 0 40 4.756 40 11.832V28.168C40 35.244 35.446 40 28.666 40H11.33C4.552 40 0 35.244 0 28.168V11.832C0 4.756 4.552 0 11.33 0H28.668ZM28.668 3H11.33C6.27 3 3 6.466 3 11.832V28.168C3 33.534 6.27 37 11.33 37H28.666C33.728 37 37 33.534 37 28.168V11.832C37 6.466 33.728 3 28.668 3ZM28.179 14.194C28.765 14.78 28.765 15.728 28.179 16.314L18.687 25.806C18.395 26.1 18.011 26.246 17.627 26.246C17.245 26.246 16.859 26.1 16.567 25.806L11.819 21.06C11.233 20.474 11.233 19.526 11.819 18.94C12.405 18.354 13.353 18.354 13.939 18.94L17.627 22.624L26.059 14.194C26.645 13.608 27.593 13.608 28.179 14.194Z" fill="#D6A266"/>
</svg>
