<svg width="28" height="34" viewBox="0 0 28 34" fill="none" xmlns="http://www.w3.org/2000/svg">
<path d="M22.2852 20.8338L26.172 15.0406C26.3302 14.8075 26.4216 14.5358 26.4365 14.2548C26.4513 13.9738 26.3891 13.6941 26.2565 13.4456C26.1238 13.1972 25.9257 12.9895 25.6835 12.8448C25.4412 12.7001 25.164 12.6238 24.8816 12.6242H15.7244L16.9215 1.64206C16.9424 1.30997 16.8554 0.980021 16.6734 0.701043C16.4914 0.422065 16.224 0.208894 15.911 0.0930885C15.5853 -0.0247842 15.2294 -0.0308852 14.8999 0.0757542C14.5703 0.182394 14.286 0.395661 14.092 0.681696L9.24129 7.83793L22.2852 20.8338ZM5.71212 13.0889L1.82536 18.8821C1.66719 19.1152 1.57576 19.3869 1.56088 19.6679C1.546 19.9489 1.60823 20.2286 1.74089 20.4771C1.87356 20.7255 2.07164 20.9332 2.31387 21.0779C2.5561 21.2226 2.83332 21.2989 3.11576 21.2985H12.273L11.0758 32.2806C11.0372 32.6253 11.1158 32.9729 11.299 33.2678C11.4823 33.5627 11.7595 33.7878 12.0864 33.9071C12.2559 33.9683 12.4347 33.9998 12.615 34C12.8697 34.0004 13.1205 33.9384 13.3455 33.8196C13.5705 33.7008 13.7628 33.5287 13.9054 33.3185L18.7561 26.0848L5.71212 13.0889ZM27.5401 28.2533L2.6649 3.46984C2.51994 3.32542 2.34785 3.21085 2.15846 3.13269C1.96906 3.05453 1.76606 3.0143 1.56106 3.0143C1.35606 3.0143 1.15307 3.05453 0.96367 3.13269C0.774273 3.21085 0.602183 3.32542 0.457225 3.46984C0.164469 3.76152 0 4.15711 0 4.56961C0 4.9821 0.164469 5.3777 0.457225 5.66937L25.3324 30.4529C25.477 30.598 25.6489 30.7133 25.8384 30.7919C26.0278 30.8706 26.231 30.911 26.4363 30.911C26.6415 30.911 26.8447 30.8706 27.0342 30.7919C27.2236 30.7133 27.3956 30.598 27.5401 30.4529C27.6858 30.3089 27.8015 30.1375 27.8804 29.9488C27.9594 29.76 28 29.5576 28 29.3531C28 29.1486 27.9594 28.9462 27.8804 28.7574C27.8015 28.5686 27.6858 28.3973 27.5401 28.2533Z" fill="#D6A266"/>
</svg>
