<svg width="23" height="23" viewBox="0 0 23 23" fill="none" xmlns="http://www.w3.org/2000/svg">
<path d="M11.5 0C9.22552 0 7.00211 0.674463 5.11095 1.9381C3.21978 3.20173 1.7458 4.99779 0.87539 7.09914C0.00498277 9.20049 -0.222756 11.5128 0.220974 13.7435C0.664704 15.9743 1.75997 18.0234 3.36828 19.6317C4.97658 21.24 7.02568 22.3353 9.25646 22.779C11.4872 23.2228 13.7995 22.995 15.9009 22.1246C18.0022 21.2542 19.7983 19.7802 21.0619 17.8891C22.3255 15.9979 23 13.7745 23 11.5C22.9965 8.45107 21.7838 5.528 19.6279 3.37209C17.472 1.21617 14.5489 0.00345349 11.5 0ZM11.5 21.2308C9.57544 21.2308 7.69409 20.6601 6.09388 19.5908C4.49366 18.5216 3.24644 17.0019 2.50995 15.2238C1.77345 13.4457 1.58075 11.4892 1.95621 9.60162C2.33167 7.71403 3.25844 5.98018 4.61931 4.61931C5.98018 3.25843 7.71404 2.33167 9.60162 1.9562C11.4892 1.58074 13.4457 1.77344 15.2238 2.50994C17.0019 3.24644 18.5216 4.49366 19.5908 6.09387C20.6601 7.69409 21.2308 9.57543 21.2308 11.5C21.2278 14.0799 20.2017 16.5532 18.3775 18.3775C16.5532 20.2017 14.0799 21.2278 11.5 21.2308ZM16.1165 5.6998L9.25673 8.81818C9.05602 8.9094 8.8966 9.07226 8.80967 9.27486L5.99493 15.8429C5.92531 16.0054 5.90598 16.185 5.93942 16.3586C5.97286 16.5322 6.05754 16.6918 6.18255 16.8168C6.30755 16.9418 6.46714 17.0265 6.64072 17.0599C6.81431 17.0934 6.99394 17.074 7.15643 17.0044L13.7244 14.1896C13.9276 14.1025 14.0909 13.9424 14.182 13.7409L17.2886 6.86948C17.3627 6.70554 17.385 6.5229 17.3527 6.34592C17.3203 6.16895 17.2347 6.00606 17.1074 5.87897C16.98 5.75189 16.8169 5.66666 16.6399 5.63464C16.4629 5.60263 16.2803 5.62536 16.1165 5.6998ZM12.7115 12.6989L8.49231 14.5071L10.3008 10.287L14.7076 8.28365L12.7115 12.6989Z" fill="#D6A266"/>
</svg>
