<svg width="15" height="17" viewBox="0 0 15 17" fill="none" xmlns="http://www.w3.org/2000/svg">
<path d="M11.5923 7.45061C11.892 7.53806 12.1773 7.65674 12.4483 7.80666C12.7193 7.95657 13.0031 8.18456 13.2996 8.49063C13.5961 8.7967 13.8495 9.15743 14.06 9.57281C14.2704 9.98819 14.4457 10.5254 14.586 11.1844C14.7263 11.8434 14.7964 12.582 14.7964 13.4003C14.7964 14.3622 14.4776 15.1852 13.84 15.8691C13.2023 16.5531 12.434 16.8951 11.5349 16.8951H3.36661C2.46753 16.8951 1.69916 16.5531 1.06151 15.8691C0.423865 15.1852 0.105041 14.3622 0.105041 13.4003C0.105041 12.582 0.175182 11.8434 0.315465 11.1844C0.455747 10.5254 0.6311 9.98819 0.841524 9.57281C1.05195 9.15743 1.30541 8.7967 1.60192 8.49063C1.89843 8.18456 2.18218 7.95657 2.45318 7.80666C2.72418 7.65674 3.00953 7.53806 3.30922 7.45061C2.80548 6.66982 2.55361 5.82032 2.55361 4.90211C2.55361 4.25249 2.68273 3.63254 2.94098 3.04226C3.19923 2.45198 3.54834 1.94134 3.98832 1.51034C4.42829 1.07934 4.94957 0.737355 5.55215 0.484378C6.15472 0.231401 6.78759 0.104913 7.45074 0.104913C8.1139 0.104913 8.74676 0.231401 9.34934 0.484378C9.95191 0.737355 10.4732 1.07934 10.9132 1.51034C11.3531 1.94134 11.7023 2.45198 11.9605 3.04226C12.2188 3.63254 12.3479 4.25249 12.3479 4.90211C12.3479 5.82032 12.096 6.66982 11.5923 7.45061ZM7.45074 1.30421C6.43688 1.30421 5.57128 1.65557 4.85392 2.35828C4.13657 3.061 3.77789 3.90894 3.77789 4.90211C3.77789 5.89527 4.13657 6.74322 4.85392 7.44593C5.57128 8.14864 6.43688 8.5 7.45074 8.5C8.4646 8.5 9.33021 8.14864 10.0476 7.44593C10.7649 6.74322 11.1236 5.89527 11.1236 4.90211C11.1236 3.90894 10.7649 3.061 10.0476 2.35828C9.33021 1.65557 8.4646 1.30421 7.45074 1.30421ZM11.5349 15.6958C12.096 15.6958 12.5758 15.4725 12.9744 15.0259C13.3729 14.5793 13.5722 14.0374 13.5722 13.4003C13.5722 11.9074 13.3219 10.7299 12.8213 9.86795C12.3208 9.00595 11.6018 8.55309 10.6645 8.50937C9.7399 9.30266 8.66865 9.6993 7.45074 9.6993C6.23283 9.6993 5.16159 9.30266 4.237 8.50937C3.29966 8.55309 2.58071 9.00595 2.08015 9.86795C1.5796 10.7299 1.32932 11.9074 1.32932 13.4003C1.32932 14.0374 1.52859 14.5793 1.92712 15.0259C2.32565 15.4725 2.80548 15.6958 3.36661 15.6958H11.5349Z" fill="#D6A266" stroke="#D6A266" stroke-width="0.2"/>
</svg>
