<svg width="28" height="27" viewBox="0 0 28 27" fill="none" xmlns="http://www.w3.org/2000/svg">
<path d="M5.6778 7.33511L7.88053 6.66074C8.05411 6.60766 8.23644 6.58929 8.41712 6.60668C8.5978 6.62406 8.77328 6.67686 8.93356 6.76207C9.09383 6.84727 9.23575 6.96321 9.35121 7.10326C9.46668 7.24332 9.55343 7.40474 9.60651 7.57832C9.65959 7.7519 9.67796 7.93423 9.66058 8.11491C9.64319 8.29559 9.59039 8.47107 9.50518 8.63134C9.41998 8.79162 9.30404 8.93354 9.16399 9.049C9.02394 9.16447 8.86251 9.25122 8.68894 9.3043L3.40321 10.9211C3.22954 10.9742 3.04712 10.9925 2.86635 10.9751C2.68559 10.9576 2.51005 10.9047 2.34975 10.8194C2.18945 10.734 2.04755 10.6179 1.93215 10.4777C1.81676 10.3375 1.73013 10.1759 1.67723 10.0022L0.0604221 4.71643C0.00734148 4.54285 -0.0110306 4.36052 0.00635477 4.17984C0.0237402 3.99916 0.0765425 3.82367 0.161747 3.6634C0.246952 3.50313 0.36289 3.36121 0.502942 3.24574C0.642994 3.13028 0.804418 3.04353 0.977996 2.99045C1.32855 2.88325 1.70734 2.91969 2.03102 3.09177C2.35471 3.26385 2.59677 3.55746 2.70398 3.90802L3.31201 5.89932C6.63959 0.773898 13.2409 -1.43021 19.1015 0.971508C20.8541 1.6899 22.428 2.78364 23.7125 4.17577C24.997 5.56791 25.9607 7.22461 26.536 9.0293C26.595 9.20315 26.6187 9.387 26.6059 9.57013C26.593 9.75326 26.5438 9.93198 26.4611 10.0959C26.3783 10.2598 26.2638 10.4055 26.1241 10.5246C25.9844 10.6438 25.8224 10.7339 25.6475 10.7897C25.4727 10.8455 25.2884 10.8659 25.1055 10.8497C24.9227 10.8335 24.7449 10.7811 24.5825 10.6954C24.4202 10.6098 24.2765 10.4926 24.1599 10.3508C24.0433 10.209 23.9562 10.0454 23.9035 9.86949C23.3197 8.03624 22.2293 6.40549 20.7582 5.16554C19.2871 3.92559 17.4953 3.12701 15.5896 2.862C13.684 2.59699 11.7423 2.87637 9.98866 3.66787C8.23505 4.45937 6.74105 5.73071 5.67918 7.33511H5.6778ZM22.7123 18.6597L20.2595 19.2719C20.0819 19.3206 19.8963 19.3333 19.7137 19.3093C19.5311 19.2852 19.3552 19.2249 19.1962 19.1319C19.0373 19.039 18.8985 18.9151 18.7881 18.7677C18.6777 18.6203 18.5978 18.4524 18.5532 18.2737C18.5087 18.095 18.5002 17.9092 18.5285 17.7272C18.5567 17.5452 18.6211 17.3707 18.7177 17.214C18.8144 17.0572 18.9414 16.9213 19.0913 16.8143C19.2412 16.7074 19.411 16.6314 19.5907 16.591L24.6249 15.3349C24.8872 15.2101 25.1822 15.1714 25.4678 15.2243C25.743 15.2605 26.0009 15.3787 26.208 15.5636C26.415 15.7485 26.5616 15.9914 26.6286 16.2607L27.9663 21.6225C28.0455 21.9746 27.9838 22.3438 27.7944 22.651C27.605 22.9583 27.3028 23.1792 26.9526 23.2666C26.6024 23.354 26.2319 23.3009 25.9203 23.1186C25.6088 22.9363 25.3809 22.6394 25.2854 22.2913L24.8294 20.4644C23.4989 22.3791 21.6766 23.8995 19.5544 24.8655C17.4323 25.8315 15.089 26.2072 12.7713 25.9531C10.4535 25.6991 8.24724 24.8246 6.38478 23.4219C4.52233 22.0191 3.07267 20.14 2.18853 17.9826L1.82924 17.1064C1.76046 16.9385 1.72544 16.7586 1.72617 16.5771C1.7269 16.3957 1.76337 16.2161 1.83349 16.0487C1.90362 15.8813 2.00603 15.7294 2.13488 15.6015C2.26373 15.4737 2.41649 15.3725 2.58444 15.3038C2.92364 15.1649 3.30412 15.1664 3.64219 15.308C3.80958 15.3782 3.96152 15.4806 4.08934 15.6094C4.21715 15.7383 4.31834 15.891 4.38712 16.059L4.74641 16.9337C5.45082 18.6525 6.61126 20.1464 8.10248 21.254C9.5937 22.3616 11.3591 23.0409 13.2081 23.2187C15.0572 23.3965 16.9197 23.066 18.5946 22.2627C20.2695 21.4595 21.6933 20.2142 22.7123 18.6611V18.6597Z" fill="#D6A266"/>
</svg>
