<svg width="38" height="44" viewBox="0 0 38 44" fill="none" xmlns="http://www.w3.org/2000/svg">
<path d="M22.4704 38.543L22.4711 38.5422C23.1191 37.8267 24.2246 37.7675 24.9416 38.4141C25.6602 39.0604 25.7189 40.1686 25.0721 40.8855C23.4127 42.7276 21.221 43.75 18.8965 43.75H18.8925H18.8922C16.5738 43.7479 14.3862 42.7256 12.7328 40.8835L22.4704 38.543ZM22.4704 38.543C21.4737 39.653 20.2028 40.25 18.8965 40.25H18.8945C17.5945 40.25 16.3295 39.6533 15.3345 38.545M22.4704 38.543L15.3345 38.545M15.3345 38.545C14.6882 37.8242 13.582 37.7658 12.8633 38.4141M15.3345 38.545L12.8633 38.4141M12.8633 38.4141C12.1446 39.0584 12.0863 40.1664 12.7324 40.883L12.8633 38.4141ZM18.9941 3.75C12.1294 3.75 7.38205 9.12645 7.38205 13.89C7.38205 15.9932 7.09001 17.541 6.66402 18.7824C6.23879 20.0215 5.68292 20.9458 5.17322 21.7933L5.17237 21.7947C4.76171 22.4785 4.40868 23.0678 4.15448 23.7728C3.90266 24.4712 3.74507 25.2925 3.74406 26.4309C3.82611 27.3449 4.03686 28.1269 4.48215 28.7935C4.92802 29.4609 5.62395 30.0349 6.71456 30.5038C8.91151 31.4486 12.6563 31.946 18.9941 31.946C25.2959 31.946 29.0422 31.4266 31.2491 30.4554C32.3449 29.9732 33.0491 29.3845 33.5016 28.7022C33.9533 28.021 34.1684 27.2252 34.25 26.3015C34.246 25.2296 34.0875 24.4411 33.8351 23.7585C33.58 23.0687 33.2265 22.4787 32.8158 21.7948L18.9941 3.75ZM18.9941 3.75C25.8587 3.75 30.6061 9.12645 30.6061 13.89C30.6061 15.9932 30.8981 17.541 31.3241 18.7824C31.7493 20.0215 32.3052 20.9458 32.8149 21.7933L32.8157 21.7947L18.9941 3.75ZM37.7431 26.4635L37.7441 26.4528V26.442C37.7441 23.2058 36.7101 21.4822 35.8144 19.9933C35.3648 19.2443 34.9422 18.5388 34.6281 17.612C34.3146 16.6871 34.1061 15.5309 34.1061 13.89C34.1061 7.28001 28.0161 0.25 18.9941 0.25C9.97198 0.25 3.88205 7.28001 3.88205 13.89C3.88205 16.7729 3.2392 18.173 2.48603 19.4676C2.48584 19.4679 2.48565 19.4683 2.48546 19.4686L2.17383 19.9931C2.1737 19.9933 2.17357 19.9936 2.17343 19.9938C1.2766 21.4845 0.243932 23.2076 0.250027 26.5705L0.250046 26.581L0.250959 26.5916C0.42747 28.6293 1.10284 30.2163 2.17765 31.4432C3.25007 32.6674 4.70569 33.5167 6.41735 34.1066C9.83094 35.283 14.3229 35.446 18.9941 35.446C23.6651 35.446 28.1571 35.283 31.5717 34.0903C33.2841 33.4921 34.7402 32.6304 35.8133 31.3879C36.8885 30.1429 37.5647 28.5323 37.7431 26.4635Z" fill="#F5EADD" stroke="#F5EADD" stroke-width="0.5"/>
</svg>
