<svg width="45" height="40" viewBox="0 0 45 40" fill="none" xmlns="http://www.w3.org/2000/svg">
<path d="M29.8972 0.796223C31.2075 1.31774 32.134 2.25777 32.9645 3.63589L33.2382 4.11152L34.2534 6.05825L34.2868 6.11261L34.3172 6.15994L34.4034 6.27781C34.8659 6.78182 35.64 7.08629 36.151 7.08629C40.8313 7.08629 44.6539 10.7619 44.8883 15.3827L44.8997 15.8327V28.8424C44.8997 34.841 40.1623 39.7362 34.226 39.9897L33.7421 40H11.1576C5.15749 40 0.26372 35.2634 0.0103083 29.3264L0 28.8424V15.8327C0 11.0029 3.91745 7.08629 8.7487 7.08629C9.25781 7.08629 10.033 6.78137 10.4963 6.27781L10.5123 6.25899L10.5322 6.23283L10.6477 6.05574L11.66 4.11214C12.5624 2.47212 13.5441 1.37579 15.0007 0.796012C17.67 -0.265372 27.23 -0.265372 29.8972 0.796223ZM16.2455 3.92498C15.7485 4.1228 15.2985 4.5807 14.8183 5.3745L14.6104 5.7355L13.7464 7.40598L13.5337 7.79084C13.3562 8.08612 13.1786 8.33537 12.9759 8.55629C11.9423 9.67981 10.4582 10.3287 9.13892 10.4374L8.7487 10.4538L8.38031 10.4662C5.7022 10.6473 3.56102 12.7879 3.37989 15.4646L3.36748 15.8327V28.8424C3.36748 33.0008 6.62661 36.3991 10.7302 36.621L11.1576 36.6325H33.7421C37.8996 36.6325 41.2987 33.3721 41.5207 29.2697L41.5322 28.8424V15.8327C41.5322 12.9866 39.3192 10.6555 36.5194 10.4662L36.151 10.4538L35.7601 10.4374C34.4388 10.3287 32.9547 9.67962 31.9224 8.5548C31.7223 8.33681 31.5457 8.08932 31.3693 7.79654L31.3269 7.72396L31.2763 7.63382L31.0157 7.14498L30.2885 5.73611C29.7975 4.84461 29.3479 4.29977 28.8624 4.02595L28.6519 3.92498L28.384 3.83593C26.0736 3.1829 18.0371 3.21258 16.2455 3.92498ZM22.4492 13.9171C27.3213 13.9171 31.2697 17.8656 31.2697 22.7376C31.2697 27.6097 27.3213 31.5582 22.4492 31.5582C17.5771 31.5582 13.6286 27.6097 13.6286 22.7376C13.6286 17.8656 17.5771 13.9171 22.4492 13.9171ZM22.4492 17.2846C19.4369 17.2846 16.9961 19.7254 16.9961 22.7376C16.9961 25.7499 19.4369 28.1907 22.4492 28.1907C25.4615 28.1907 27.9022 25.7499 27.9022 22.7376C27.9022 19.7254 25.4615 17.2846 22.4492 17.2846ZM34.8069 12.3479C36.0468 12.3479 37.0519 13.353 37.0519 14.5928C37.0519 15.7442 36.1852 16.693 35.0687 16.8227L34.8069 16.8378C33.5468 16.8378 32.5417 15.8327 32.5417 14.5928C32.5417 13.4415 33.4084 12.4926 34.5249 12.363L34.8069 12.3479Z" fill="#F5EADD"/>
</svg>
