<svg width="28" height="29" viewBox="0 0 28 29" fill="none" xmlns="http://www.w3.org/2000/svg">
<path d="M1.81652 0.333884C1.72048 0.230817 1.60466 0.14815 1.47598 0.0908145C1.3473 0.0334787 1.20839 0.00264847 1.06754 0.00016326C0.926684 -0.00232195 0.786773 0.0235885 0.65615 0.0763492C0.525527 0.12911 0.406869 0.20764 0.307254 0.307254C0.20764 0.406869 0.12911 0.525527 0.0763492 0.65615C0.0235885 0.786773 -0.00232195 0.926684 0.00016326 1.06754C0.00264847 1.20839 0.0334787 1.3473 0.0908145 1.47598C0.14815 1.60466 0.230817 1.72048 0.333884 1.81652L5.91893 7.40296C4.74943 8.49102 3.81118 9.80359 3.16021 11.2623C2.50923 12.721 2.15888 14.2959 2.13008 15.8931C2.10128 17.4902 2.39462 19.0767 2.99258 20.5579C3.59054 22.0392 4.48086 23.3847 5.61037 24.5142C6.73988 25.6437 8.08543 26.5341 9.56666 27.132C11.0479 27.73 12.6344 28.0233 14.2315 27.9945C15.8287 27.9657 17.4036 27.6154 18.8623 26.9644C20.321 26.3134 21.6336 25.3752 22.7216 24.2057L26.2086 27.694C26.4054 27.8908 26.6723 28.0014 26.9506 28.0014C27.2289 28.0014 27.4959 27.8908 27.6926 27.694C27.8894 27.4972 28 27.2303 28 26.952C28 26.6737 27.8894 26.4068 27.6926 26.21L1.81652 0.333884ZM14.8749 16.3589C14.7546 16.5328 14.5846 16.6664 14.3871 16.742C14.1896 16.8176 13.9739 16.8318 13.7682 16.7826C13.5625 16.7335 13.3765 16.6233 13.2345 16.4666C13.0925 16.3098 13.0013 16.1138 12.9726 15.9043L12.9642 15.7617V14.4469L14.8749 16.3589V16.3589ZM15.0623 9.46746V10.6116L25.0323 20.583C25.9126 18.4171 26.1349 16.0397 25.6711 13.7482C25.2074 11.4566 24.0783 9.35268 22.4251 7.69948C20.7719 6.04627 18.668 4.91719 16.3764 4.45347C14.0849 3.98974 11.7075 4.21195 9.54159 5.09229L13.2258 8.7751C13.3585 8.62425 13.5318 8.51471 13.725 8.45948C13.9182 8.40426 14.1232 8.40568 14.3156 8.46358C14.508 8.52148 14.6797 8.63342 14.8104 8.78609C14.941 8.93876 15.0251 9.12574 15.0525 9.32479L15.0623 9.46746V9.46746ZM24.042 4.39434L24.1567 4.47966L25.7638 5.87837C25.9652 6.05274 26.0927 6.29721 26.1205 6.56215C26.1483 6.8271 26.0742 7.09269 25.9133 7.30502C25.7524 7.51734 25.5167 7.6605 25.2542 7.70545C24.9916 7.75039 24.7217 7.69376 24.4994 7.54703L24.3861 7.46171L22.779 6.063C22.5793 5.88825 22.4533 5.64434 22.4263 5.38039C22.3993 5.11644 22.4733 4.85206 22.6334 4.6405C22.7936 4.42895 23.0279 4.28593 23.2893 4.24025C23.5507 4.19457 23.8196 4.24963 24.042 4.39434ZM17.1604 0.725522C17.4261 0.725604 17.682 0.826571 17.8762 1.00802C18.0704 1.18948 18.1885 1.43788 18.2066 1.70305C18.2247 1.96822 18.1415 2.23038 17.9738 2.43656C17.8061 2.64274 17.5663 2.77757 17.303 2.8138L17.1604 2.82359H10.8662C10.6004 2.82351 10.3445 2.72254 10.1503 2.54109C9.95611 2.35963 9.83801 2.11123 9.8199 1.84606C9.80178 1.58089 9.88499 1.31873 10.0527 1.11255C10.2205 0.906367 10.4602 0.771542 10.7235 0.735313L10.8662 0.725522H17.1604Z" fill="#D6A266"/>
</svg>
