<svg width="23" height="27" viewBox="0 0 23 27" fill="none" xmlns="http://www.w3.org/2000/svg">
<path fill-rule="evenodd" clip-rule="evenodd" d="M14.8018 0C14.8598 0 14.9165 0.00487742 14.9718 0.0142437L15.1564 0.0153763C15.4316 0.0153763 15.6946 0.127326 15.8861 0.325599L22.7178 7.44319C22.8985 7.63068 22.9998 7.8829 22.9998 8.14322V20.5063C23.0239 23.8904 20.3884 26.6554 16.9989 26.793L6.18288 26.7944H6.03586C2.73139 26.7197 0.0811469 24.0472 0.000407108 20.7749L0 6.05663C0.0782302 2.71027 2.84191 0.0153763 6.164 0.0153763L14.6318 0.0142437C14.6871 0.00487742 14.7439 0 14.8018 0ZM13.7901 2.03803L6.16669 2.03857C3.93174 2.03857 2.0758 3.84865 2.02319 6.08091V20.5063C1.97329 22.8168 3.79416 24.7199 6.08172 24.7712H16.9584C19.2096 24.6781 20.9927 22.8073 20.9766 20.5144L20.9765 9.41864L18.2655 9.41999C15.7972 9.41325 13.7902 7.40084 13.7902 4.93524L13.7901 2.03803ZM14.5499 17.0058C15.1083 17.0058 15.5615 17.4589 15.5615 18.0173C15.5615 18.5758 15.1083 19.0289 14.5499 19.0289H7.26637C6.70797 19.0289 6.25477 18.5758 6.25477 18.0173C6.25477 17.4589 6.70797 17.0058 7.26637 17.0058H14.5499ZM11.7917 11.9451C12.3501 11.9451 12.8033 12.3983 12.8033 12.9567C12.8033 13.5151 12.3501 13.9683 11.7917 13.9683H7.26515C6.70675 13.9683 6.25356 13.5151 6.25356 12.9567C6.25356 12.3983 6.70675 11.9451 7.26515 11.9451H11.7917ZM15.8133 3.17237L15.8134 4.93524C15.8134 6.28943 16.9154 7.39275 18.2682 7.3968L19.8678 7.39545L15.8133 3.17237Z" fill="#F5EADD"/>
</svg>
