<svg width="20" height="21" viewBox="0 0 20 21" fill="none" xmlns="http://www.w3.org/2000/svg">
<g filter="url(#filter0_d_1433_1311)">
<path d="M8.08067 4.49748L9.4165 3.15581V8.74998C9.4165 8.90469 9.47796 9.05306 9.58736 9.16246C9.69675 9.27185 9.84513 9.33331 9.99984 9.33331C10.1545 9.33331 10.3029 9.27185 10.4123 9.16246C10.5217 9.05306 10.5832 8.90469 10.5832 8.74998V3.15581L11.919 4.49748C11.9732 4.55216 12.0377 4.59555 12.1088 4.62517C12.1799 4.65478 12.2562 4.67003 12.3332 4.67003C12.4102 4.67003 12.4864 4.65478 12.5575 4.62517C12.6286 4.59555 12.6931 4.55216 12.7473 4.49748C12.802 4.44325 12.8454 4.37873 12.875 4.30765C12.9046 4.23657 12.9199 4.16032 12.9199 4.08331C12.9199 4.00631 12.9046 3.93006 12.875 3.85898C12.8454 3.78789 12.802 3.72338 12.7473 3.66915L10.414 1.33581C10.3585 1.28271 10.2931 1.24108 10.2215 1.21331C10.0795 1.15497 9.92019 1.15497 9.77817 1.21331C9.70657 1.24108 9.64115 1.28271 9.58567 1.33581L7.25234 3.66915C7.19795 3.72354 7.1548 3.78811 7.12537 3.85917C7.09593 3.93023 7.08078 4.0064 7.08078 4.08331C7.08078 4.16023 7.09593 4.2364 7.12537 4.30746C7.1548 4.37852 7.19795 4.44309 7.25234 4.49748C7.30673 4.55187 7.3713 4.59501 7.44236 4.62445C7.51342 4.65388 7.58959 4.66903 7.6665 4.66903C7.74342 4.66903 7.81959 4.65388 7.89065 4.62445C7.96171 4.59501 8.02628 4.55187 8.08067 4.49748ZM15.2498 6.99998C15.0951 6.99998 14.9468 7.06144 14.8374 7.17083C14.728 7.28023 14.6665 7.4286 14.6665 7.58331V11.0833C14.6665 11.238 14.605 11.3864 14.4956 11.4958C14.3863 11.6052 14.2379 11.6666 14.0832 11.6666H5.9165C5.76179 11.6666 5.61342 11.6052 5.50402 11.4958C5.39463 11.3864 5.33317 11.238 5.33317 11.0833V7.58331C5.33317 7.4286 5.27171 7.28023 5.16232 7.17083C5.05292 7.06144 4.90455 6.99998 4.74984 6.99998C4.59513 6.99998 4.44675 7.06144 4.33736 7.17083C4.22796 7.28023 4.1665 7.4286 4.1665 7.58331V11.0833C4.1665 11.5474 4.35088 11.9926 4.67907 12.3208C5.00726 12.6489 5.45238 12.8333 5.9165 12.8333H14.0832C14.5473 12.8333 14.9924 12.6489 15.3206 12.3208C15.6488 11.9926 15.8332 11.5474 15.8332 11.0833V7.58331C15.8332 7.4286 15.7717 7.28023 15.6623 7.17083C15.5529 7.06144 15.4045 6.99998 15.2498 6.99998Z" fill="#D6A266"/>
</g>
<defs>
<filter id="filter0_d_1433_1311" x="-1" y="0" width="22" height="22" filterUnits="userSpaceOnUse" color-interpolation-filters="sRGB">
<feFlood flood-opacity="0" result="BackgroundImageFix"/>
<feColorMatrix in="SourceAlpha" type="matrix" values="0 0 0 0 0 0 0 0 0 0 0 0 0 0 0 0 0 0 127 0" result="hardAlpha"/>
<feOffset dy="4"/>
<feGaussianBlur stdDeviation="2"/>
<feComposite in2="hardAlpha" operator="out"/>
<feColorMatrix type="matrix" values="0 0 0 0 0 0 0 0 0 0 0 0 0 0 0 0 0 0 0.25 0"/>
<feBlend mode="normal" in2="BackgroundImageFix" result="effect1_dropShadow_1433_1311"/>
<feBlend mode="normal" in="SourceGraphic" in2="effect1_dropShadow_1433_1311" result="shape"/>
</filter>
</defs>
</svg>
